<svg id="Layer_1" data-name="Layer 1" xmlns="http://www.w3.org/2000/svg" viewBox="0 0 407.51 343.97"><defs><style>.cls-1,.cls-3,.cls-4{fill:#fff;}.cls-2,.cls-3,.cls-4{stroke:#000;stroke-miterlimit:10;}.cls-2{stroke-width:0.75px;}.cls-3,.cls-4{stroke-linecap:round;}.cls-3{stroke-width:34px;}.cls-4{stroke-width:25px;}</style></defs><ellipse class="cls-1" cx="234.01" cy="170.52" rx="142" ry="139"/><path d="M645.5,266C706.43,266,756,314.22,756,373.5S706.43,481,645.5,481,535,432.78,535,373.5,584.57,266,645.5,266m0-63C549.68,203,472,279.34,472,373.5S549.68,544,645.5,544,819,467.66,819,373.5,741.32,203,645.5,203Z" transform="translate(-411.49 -202.98)"/><ellipse class="cls-1" cx="646" cy="373.5" rx="87" ry="85.74" transform="translate(-511.7 170.06) rotate(-30)"/><path d="M647,287.43a88.17,88.17,0,0,0-51.46,16.72l23.39,32.44c1.34-1,2.75-1.87,4.19-2.7A47.83,47.83,0,0,1,647,327.43v-40ZM563.6,347.8a85.29,85.29,0,0,0,.18,54.05L601.65,389a45.12,45.12,0,0,1,0-28.73l-38-12.45ZM619,411.68l-22.4,33.15a86.18,86.18,0,0,0,28.75,12.49h0l.59.14h0l.51.11h0l.08,0h.09l.49.1h0l.07,0h0l.08,0h0l.41.08h.1l.07,0h0l.41.08h0l.07,0h0l.07,0h.1l.33.07h.09l.08,0h.1l.32.06h.1l.07,0h.18l.25,0h0l.06,0h.12l.06,0h.11l.24,0H631l.31.05h.36l.24,0h.37l.22,0h.39l.22,0h.47l.13,0h.48l.12,0h10.94c1.12,0,2.24,0,3.36-.07l-1.66-40c-.65,0-1.31,0-2,0a46.34,46.34,0,0,1-26-7.89Zm72-26.8a47.08,47.08,0,0,1-16.32,24.34l24.7,31.46a87.13,87.13,0,0,0,13.45-13.13h0l.2-.25h0l.14-.17h0l.07-.08h0l.13-.17h0l.2-.25h0l.13-.17h0l.06-.08h0l.13-.16h0l.07-.08h0l.13-.16h0l.07-.08h0l.06-.08h0l.07-.08h0l.13-.17h0l.07-.08h0l.13-.16h0l.06-.08h0l.06-.08h0l.06-.08h0l.12-.17h0l.06-.08h0l.12-.16h0l.05-.08h0l.06-.08h0l.06-.08h0l.12-.16h0l.06-.08h0l.12-.16h0l.06-.08h0l0-.08h0l.05-.08v0l.06-.07h0l.06-.07v0l0-.07v0l.12-.15v0l.05-.07v0l0-.07h0l.06-.07v0l0-.08h0l.05-.07h0l0-.08,0,0,.05-.07h0l.06-.07v0l.05-.07v0l0-.07h0l.05-.07,0,0,0-.08h0l0-.07h0l0-.08h0l.05-.08h0l0-.07v0l.05-.07,0,0,0-.07h0l.05-.08h0l.06-.08h0l0-.07v0l0-.07,0,0,.05-.08h0l0-.06,0,0,.05-.07v0l0-.06v0l0-.07,0,0,0-.08h0l0-.07,0,0,0-.07,0,0,0-.07v0l0-.06,0,0,0-.07,0,0,0-.06v0l0-.07v0l.05-.07v0l0-.06,0,0,.05-.07v0l0-.08v0l0-.06,0,0,0-.07,0,0,0-.06v0l0-.07v0l0-.07v0l0-.06v0l0-.07,0,0,0-.07v0l0-.07,0,0,0-.07,0,0,0-.06,0,0,0-.07v0l0-.07v0l0-.06v0l0-.07v0l.05-.08v0l0-.06v0l0-.07v0l.05-.07h0l0-.07v0l.05-.08v0l0-.06,0,0,0-.07v0l0-.07v0l0-.06v0l0-.07v0l0-.06,0,0,0-.06,0,0,0-.07,0,0,0-.06,0,0,0-.06,0,0,0-.07v0l0-.06v0l.05-.07v0l0-.07,0,0,0-.06,0,0,0-.08,0,0,0-.06,0,0,0-.07v0l0-.07,0,0,0-.06,0,0,0-.07v0l0-.07v0l0-.06,0,0,0-.07,0,0,0-.06,0,0,0-.06,0,0,0-.07v0l0-.07v0l0-.07,0,0,0-.07v0l0-.06v0l0-.07,0,0,0-.07v0l0-.06,0,0,0-.07v0l0-.06v0l0-.07,0,0,0-.07v0l0-.06,0,0,0-.07v0l0-.07v0l0-.07v0l0-.07,0,0,0-.06v0l0-.08,0,0,0-.08v0l0-.06v0l0-.08v0l0-.08v0l0-.07v0l0-.07v0l0-.08h0l0-.08,0,0,0-.08h0l0-.08h0l0-.08v0l0-.08h0l0-.08v0l0-.07v0l0-.08h0l0-.08v0l0-.08v0l0-.07h0l0-.09h0l0-.09h0l0-.07v0l.05-.08v0l.09-.17v0l0-.08h0l0-.08h0l0-.08v0l0-.08h0l0-.09h0l.05-.09h0l.09-.18h0l0-.09h0l.09-.18h0l0-.09h0l0-.09h0l0-.09v0l.08-.17h0l0-.09h0l.08-.18h0l0-.09h0l0-.09h0l0-.09h0l.09-.18h0l.05-.09h0l.09-.18h0l0-.09h0l.09-.19h0l.09-.18h0l0-.09h0l.08-.19h0l0-.09h0a1.54,1.54,0,0,1,.08-.19h0l.09-.2h0l0-.09h0a86.77,86.77,0,0,0,4.27-11.81L691,384.88Zm1.44-84.67-21,34.07A44.2,44.2,0,0,1,686.7,350a45.68,45.68,0,0,1,3,6.23L727,341.74c-.53-1.37-1.1-2.73-1.71-4.09h0l-.08-.18h0l0-.09h0l0-.08h0l0-.09h0l0-.07v0l0-.08h0l0-.08v0l0-.08h0l0-.07v0l0-.08v0l0-.06v0l0-.07v0l0-.06,0,0,0-.07v0l0-.06v0l0-.06,0,0,0-.05v0l0-.05,0,0,0-.05,0,0,0-.05,0-.05,0,0,0,0,0,0,0-.06,0,0,0,0,0,0,0-.06,0,0,0,0,0,0,0-.07,0,0,0,0,0,0,0-.07,0,0,0,0,0,0,0-.07,0,0,0-.05,0,0,0-.08v0l0-.05,0,0,0-.08v0l0-.05v0l0-.1h0l0-.05v0l0-.09,0,0,0-.05,0,0,0-.09h0l0-.05,0,0,0-.11h0l0-.05v0l-.08-.16,0,0-.08-.17h0L723,333l0,0-.08-.16v0l-.09-.16v0l-.08-.16,0,0,0,0v0l0-.08v0l0,0v0l-.05-.08v0l0,0,0-.06,0-.05,0,0,0,0,0-.05,0-.05,0,0,0,0,0,0,0-.06,0,0,0,0,0-.05,0,0,0,0,0,0,0-.05,0,0,0,0,0,0,0,0,0-.05,0,0,0,0,0-.06,0,0,0-.05,0,0,0-.06,0,0,0-.06v0l0-.06,0,0,0-.06,0,0,0-.07v0l0-.07,0,0,0-.08h0l0-.07v0l0-.08h0l0-.08v0l0,0v0l0-.05,0,0,0-.05v0l0-.05,0,0,0,0v0l0-.05,0,0,0-.05v0l0-.05,0,0,0-.06v0l-.14-.23h0l0-.07h0l0-.07,0,0,0-.05v0l0,0v0l0-.06,0,0,0-.06v0l0-.06h0l0-.07h0l0-.07h0c-.06-.1-.13-.2-.19-.31h0l0-.07h0l-.05-.07h0l0-.07h0l0-.06v0l0-.06h0l0-.07h0l0-.07h0c-.1-.15-.2-.3-.29-.46h0l0-.07h0l0-.07h0l0-.07h0l-.05-.07h0a84.35,84.35,0,0,0-26.89-26.41Z" transform="translate(-411.49 -202.98)"/><circle class="cls-2" cx="233.01" cy="168.52" r="19"/><path class="cls-3" d="M645,220l-144,4.36" transform="translate(-411.49 -202.98)"/><path class="cls-4" d="M556,267.7l-132,3.13" transform="translate(-411.49 -202.98)"/><path class="cls-4" d="M556,487.16,461,486.78" transform="translate(-411.49 -202.98)"/><path class="cls-4" d="M636.92,530.85l-212.64,3.6" transform="translate(-411.49 -202.98)"/></svg>